# xmcd
#
# Track frame offsets: 
#        150
#        23886
#        42619
#        62745
#        87290
#        102029
#        121645
#        140603
#        161902
#        179281
#        193272
#
# Disc length: 2821 seconds
#
# Revision: 0
# Processed by: cddbd v1.5.2PL0 Copyright (c) Steve Scherf et al.
# Submitted via: ExactAudioCopy v0.99pb5
#
DISCID=970b030b
DTITLE=Stella Schindler - Distant Hum
DYEAR=2009
DGENRE=Country
TTITLE0=Ancient Trail
TTITLE1=Broken Glass
TTITLE2=Distant Hum
TTITLE3=Willow
TTITLE4=Simon Montgomery
TTITLE5=Death Valley
TTITLE6=Hiram's Lament
TTITLE7=Poor Margaret in the Dark
TTITLE8=Walk a While
TTITLE9=Get Along Joseph
TTITLE10=Faded Memory
EXTD=
EXTT0=
EXTT1=
EXTT2=
EXTT3=
EXTT4=
EXTT5=
EXTT6=
EXTT7=
EXTT8=
EXTT9=
EXTT10=
PLAYORDER=
